<svg width="30" height="30" viewBox="0 0 30 30" fill="none" xmlns="http://www.w3.org/2000/svg">
<path d="M28.5 15C28.5 7.54336 22.4566 1.5 15 1.5C7.54336 1.5 1.5 7.54336 1.5 15C1.5 22.4566 7.54336 28.5 15 28.5C15.0791 28.5 15.1582 28.5 15.2373 28.4947V17.99H12.3369V14.6098H15.2373V12.1207C15.2373 9.23613 16.9986 7.66465 19.5721 7.66465C20.8061 7.66465 21.866 7.7543 22.1719 7.79648V10.8129H20.4C19.0025 10.8129 18.7283 11.4773 18.7283 12.4529V14.6045H22.077L21.6393 17.9848H18.7283V27.9779C24.3709 26.359 28.5 21.1646 28.5 15Z" fill="white"/>
</svg>
