<svg width="264" height="60" viewBox="0 0 264 60" fill="none" xmlns="http://www.w3.org/2000/svg">
<path d="M41.7498 21.2766H53.5408V24.8612H45.563V28.1001H53.0641V31.6356H45.563V35.1712H53.9439L53.9466 38.7258H41.7525L41.7498 21.2766ZM88.2627 22.6865C86.7973 21.3828 84.9152 20.8711 82.9623 20.8711C79.5658 20.8711 76.3655 22.8117 76.3655 26.516C76.3655 32.3106 84.4767 30.5932 84.4767 33.7831C84.4767 35.0106 83.0849 35.6012 81.8402 35.6012C80.5709 35.6012 79.2989 34.9861 78.5145 33.9545L75.8017 36.9512C77.4386 38.4727 79.3943 39.1368 81.6168 39.1368C85.1849 39.1368 88.2872 37.2969 88.2872 33.4156C88.2872 27.3271 80.3203 29.3657 80.3203 26.1976C80.3203 24.8966 81.8102 24.4039 82.8861 24.4039C83.8148 24.4039 85.0378 24.7714 85.6479 25.5579L88.2627 22.6865ZM57.3894 30.4244C57.3894 34.5588 59.2361 37.6697 62.145 38.9299C58.261 37.7759 55.9077 34.371 55.9077 30.008C55.9077 25.6314 58.2746 22.2184 62.1777 21.0752C59.0999 22.4334 57.3894 25.9308 57.3894 30.4244ZM68.4994 21.1732C72.2118 22.4062 74.4534 25.7512 74.4534 30.008C74.4534 34.3111 72.1601 37.6861 68.3714 38.8809C71.3675 37.4819 72.9363 34.0035 72.9363 29.6569C72.9363 25.5552 71.2395 22.4933 68.4994 21.1732ZM70.6811 31.4723C70.436 36.0367 68.9897 39.0959 65.2092 39.0959C61.3088 39.0959 59.8298 36.0639 59.631 31.2763C60.173 33.8021 62.3411 35.3889 65.1792 35.3889C67.9492 35.3916 70.071 33.8838 70.6811 31.4723ZM65.2092 20.9065C69.0932 20.9065 70.4795 23.9086 70.6893 28.5818C70.0928 26.1486 67.9574 24.6244 65.1792 24.6244C62.352 24.6244 60.1948 26.1976 59.6392 28.7043C59.8734 24.0555 61.3633 20.9065 65.2092 20.9065ZM29.5585 38.7258V38.2495H27.4803V21.8999L36.6864 38.7258H37.4818V21.7747H38.3043V21.2739H34.739V21.7747H36.8934V35.4951L28.9456 21.2712H25.6091V21.772H26.892V38.2467H25.6091V38.723H29.5585V38.7258ZM18.7998 21.2766V21.7747H20.1072V38.2522H18.7998V38.7285H23.1469V38.2522H21.8259V21.7747H23.1469V21.2766H18.7998Z" fill="white"/>
<path d="M94.2109 19.3986V40.601C94.2109 40.9304 94.4779 41.1998 94.8102 41.1998C95.1397 41.1998 95.4094 40.9331 95.4094 40.601V19.3986C95.4094 19.0693 95.1424 18.7998 94.8102 18.7998C94.4779 18.8025 94.2109 19.0693 94.2109 19.3986Z" fill="white"/>
<path d="M110.139 28.2329C109.908 28.2329 109.785 28.1104 109.785 27.8954V27.5715C109.785 27.2476 109.633 27.0952 109.279 27.0952H105.621C104.621 27.0952 104.436 27.2476 104.436 28.0777V31.9181C104.436 32.7482 104.621 32.9007 105.621 32.9007H109.279C109.633 32.9007 109.785 32.7482 109.785 32.4243V31.518H107.571C107.339 31.518 107.217 31.3955 107.217 31.1805V29.4903C107.217 29.2753 107.339 29.1528 107.571 29.1528H112.444C112.675 29.1528 112.798 29.2753 112.798 29.4903V32.9605C112.798 34.7732 112.168 35.372 110.275 35.372H103.91C102.126 35.372 101.328 34.6344 101.328 32.9143V27.0788C101.328 25.3587 102.126 24.6211 103.91 24.6211H110.275C112.166 24.6211 112.798 25.2199 112.798 27.0326V27.8926C112.798 28.1077 112.675 28.2301 112.444 28.2301H110.139V28.2329Z" fill="white"/>
<path d="M121.827 29.5066H125.885C126.776 29.5066 126.915 29.3678 126.915 28.6302V27.9688C126.915 27.2312 126.776 27.0924 125.885 27.0924H121.827V29.5066ZM130.023 27.0788V29.2127C130.023 30.9328 129.271 31.8256 127.457 31.8256H127.411L130.363 35.0372C130.486 35.176 130.409 35.3747 130.24 35.3747H127.212C126.92 35.3747 126.798 35.3121 126.629 35.1134L123.981 31.9807H121.83V35.0372C121.83 35.2522 121.691 35.3747 121.462 35.3747H119.079C118.847 35.3747 118.725 35.2522 118.725 35.0372V24.9586C118.725 24.7436 118.847 24.6211 119.079 24.6211H127.457C129.268 24.6211 130.023 25.3587 130.023 27.0788Z" fill="white"/>
<path d="M146.797 24.6211C147.029 24.6211 147.151 24.7436 147.151 24.9586V26.7549C147.151 26.97 147.029 27.0924 146.797 27.0924H139.449V28.7663H145.599C145.814 28.7663 145.953 28.8888 145.953 29.1038V30.794C145.953 31.009 145.814 31.1315 145.599 31.1315H139.449V32.8979H146.797C147.029 32.8979 147.151 33.0204 147.151 33.2354V35.0318C147.151 35.2468 147.029 35.3693 146.797 35.3693H136.698C136.466 35.3693 136.344 35.2468 136.344 35.0318V24.9586C136.344 24.7436 136.466 24.6211 136.698 24.6211H146.797Z" fill="white"/>
<path d="M160.455 35.3747C160.209 35.3747 160.054 35.2985 159.962 35.0971L155.933 27.0788V35.0372C155.933 35.2522 155.794 35.3747 155.579 35.3747H153.427C153.196 35.3747 153.073 35.2522 153.073 35.0372V24.9586C153.073 24.7436 153.196 24.6211 153.427 24.6211H157.469C157.714 24.6211 157.87 24.7 157.962 24.8987L161.991 32.9333V24.9586C161.991 24.7436 162.13 24.6211 162.361 24.6211H164.497C164.728 24.6211 164.851 24.7436 164.851 24.9586V35.0372C164.851 35.2522 164.728 35.3747 164.497 35.3747H160.455Z" fill="white"/>
<path d="M192.747 32.9034H196.497C197.527 32.9034 197.913 32.5958 197.913 31.7194V28.2791C197.913 27.419 197.527 27.0952 196.497 27.0952H192.747V32.9034ZM197.619 24.6211C199.755 24.6211 201.016 25.8051 201.016 27.8627V32.1331C201.016 34.1908 199.755 35.3747 197.619 35.3747H189.996C189.764 35.3747 189.642 35.2522 189.642 35.0372V24.9586C189.642 24.7436 189.764 24.6211 189.996 24.6211H197.619Z" fill="white"/>
<path d="M210.047 35.0372C210.047 35.2522 209.908 35.3747 209.68 35.3747H207.296C207.065 35.3747 206.942 35.2522 206.942 35.0372V24.9586C206.942 24.7436 207.065 24.6211 207.296 24.6211H209.68C209.911 24.6211 210.047 24.7436 210.047 24.9586V35.0372Z" fill="white"/>
<path d="M226.425 24.6211C226.657 24.6211 226.777 24.7436 226.777 24.9586V26.7549C226.777 26.97 226.654 27.0924 226.425 27.0924H219.077V28.7663H225.227C225.442 28.7663 225.581 28.8888 225.581 29.1038V30.794C225.581 31.009 225.442 31.1315 225.227 31.1315H219.077V32.8979H226.425C226.657 32.8979 226.777 33.0204 226.777 33.2354V35.0318C226.777 35.2468 226.654 35.3693 226.425 35.3693H216.326C216.094 35.3693 215.972 35.2468 215.972 35.0318V24.9586C215.972 24.7436 216.094 24.6211 216.326 24.6211H226.425Z" fill="white"/>
<path d="M235.809 29.5066H239.867C240.758 29.5066 240.897 29.3678 240.897 28.6302V27.9688C240.897 27.2312 240.758 27.0924 239.867 27.0924H235.809V29.5066ZM244.002 27.0788V29.2127C244.002 30.9328 243.25 31.8256 241.434 31.8256H241.387L244.34 35.0372C244.462 35.176 244.386 35.3747 244.217 35.3747H241.188C240.897 35.3747 240.774 35.3121 240.606 35.1134L237.961 31.9807H235.809V35.0372C235.809 35.2522 235.67 35.3747 235.441 35.3747H233.058C232.827 35.3747 232.704 35.2522 232.704 35.0372V24.9586C232.704 24.7436 232.827 24.6211 233.058 24.6211H241.436C243.25 24.6211 244.002 25.3587 244.002 27.0788Z" fill="white"/>
<path d="M178.959 24.6211C179.098 24.6211 179.204 24.6483 179.289 24.7027C179.371 24.7572 179.43 24.8361 179.466 24.945L183.693 35.0209C183.731 35.1216 183.728 35.2087 183.69 35.2713C183.652 35.3339 183.579 35.372 183.478 35.372H180.871L177.213 26.8938L173.555 35.372H170.952C170.851 35.372 170.777 35.3339 170.739 35.2713C170.701 35.2087 170.695 35.1189 170.736 35.0209L174.964 24.945C175.002 24.8361 175.059 24.7572 175.143 24.7027C175.225 24.6483 175.334 24.6211 175.473 24.6211H178.959Z" fill="white"/>
</svg>
