<svg width="30" height="30" viewBox="0 0 30 30" fill="none" xmlns="http://www.w3.org/2000/svg">
<path fill-rule="evenodd" clip-rule="evenodd" d="M1.5 15C1.5 7.5453 7.5453 1.5 15 1.5C22.4547 1.5 28.5 7.5453 28.5 15C28.5 22.4547 22.4547 28.5 15 28.5C7.5453 28.5 1.5 22.4547 1.5 15ZM22.3449 20.0777C22.5365 19.5846 22.6677 19.0212 22.7052 18.196C22.7431 17.3693 22.752 17.1053 22.752 15C22.752 12.8947 22.7431 12.6307 22.7054 11.804C22.6677 10.9788 22.5367 10.4154 22.3449 9.92226C22.1505 9.40501 21.8452 8.93658 21.4509 8.54931C21.0636 8.15483 20.595 7.84955 20.0777 7.65488C19.5846 7.46352 19.0212 7.3325 18.196 7.29501C17.3693 7.25711 17.1053 7.24805 15 7.24805C12.8947 7.24805 12.6307 7.25711 11.804 7.29481C10.9788 7.3325 10.4154 7.46352 9.92226 7.65509C9.40501 7.84975 8.93637 8.15483 8.54931 8.54931C8.15483 8.93637 7.84955 9.40501 7.65488 9.92226C7.46331 10.4154 7.3323 10.9788 7.29481 11.804C7.2569 12.6307 7.24805 12.8947 7.24805 15C7.24805 17.1053 7.2569 17.3693 7.29501 18.1962C7.3325 19.0212 7.46372 19.5848 7.6553 20.0777C7.84996 20.595 8.15504 21.0636 8.54931 21.4507C8.93658 21.8452 9.40501 22.1502 9.92246 22.3449C10.4154 22.5365 10.979 22.6675 11.804 22.7052C12.6309 22.7429 12.8947 22.752 15.0002 22.752C17.1055 22.752 17.3695 22.7429 18.1962 22.7052C19.0212 22.6675 19.5848 22.5365 20.0777 22.3449C21.119 21.9422 21.9422 21.119 22.3449 20.0777ZM21.0424 10.4282C20.9182 10.0917 20.72 9.78699 20.4625 9.53691C20.2124 9.27942 19.908 9.08125 19.5712 8.95704C19.298 8.85095 18.8877 8.72468 18.1319 8.69028C17.3143 8.65299 17.0692 8.64496 14.9994 8.64496C12.9293 8.64496 12.6842 8.65279 11.8668 8.69007C11.111 8.72468 10.7005 8.85095 10.4275 8.95704C10.0907 9.08125 9.78607 9.27942 9.5362 9.53691C9.27871 9.78699 9.08054 10.0914 8.95612 10.4282C8.85004 10.7014 8.72376 11.1119 8.68936 11.8677C8.65208 12.6851 8.64404 12.9302 8.64404 15.0003C8.64404 17.0701 8.65208 17.3152 8.68936 18.1328C8.72376 18.8886 8.85004 19.299 8.95612 19.5721C9.08054 19.9089 9.2785 20.2134 9.536 20.4634C9.78607 20.7209 10.0905 20.9191 10.4273 21.0433C10.7005 21.1496 11.111 21.2759 11.8668 21.3103C12.6842 21.3476 12.9291 21.3554 14.9992 21.3554C17.0694 21.3554 17.3145 21.3476 18.1317 21.3103C18.8875 21.2759 19.298 21.1496 19.5712 21.0433C20.2473 20.7825 20.7816 20.2482 21.0424 19.5721C21.1485 19.299 21.2747 18.8886 21.3094 18.1328C21.3466 17.3152 21.3545 17.0701 21.3545 15.0003C21.3545 12.9302 21.3466 12.6851 21.3094 11.8677C21.275 11.1119 21.1487 10.7014 21.0424 10.4282ZM14.9994 18.9807C12.8008 18.9807 11.0185 17.1986 11.0185 15.0001C11.0185 12.8015 12.8008 11.0194 14.9994 11.0194C17.1977 11.0194 18.98 12.8015 18.98 15.0001C18.98 17.1986 17.1977 18.9807 14.9994 18.9807ZM19.1374 11.7923C18.6236 11.7923 18.2071 11.3758 18.2071 10.8621C18.2071 10.3483 18.6236 9.9318 19.1374 9.9318C19.6511 9.9318 20.0676 10.3483 20.0676 10.8621C20.0674 11.3758 19.6511 11.7923 19.1374 11.7923ZM17.584 15C17.584 16.4271 16.4271 17.584 15 17.584C13.5729 17.584 12.416 16.4271 12.416 15C12.416 13.5729 13.5729 12.416 15 12.416C16.4271 12.416 17.584 13.5729 17.584 15Z" fill="white"/>
</svg>
