<svg width="30" height="30" viewBox="0 0 30 30" fill="none" xmlns="http://www.w3.org/2000/svg">
<path d="M15 1.5C7.5453 1.5 1.5 7.5453 1.5 15C1.5 22.4547 7.5453 28.5 15 28.5C22.4547 28.5 28.5 22.4547 28.5 15C28.5 7.5453 22.4547 1.5 15 1.5ZM11.0771 21.9082H7.78919V12.0166H11.0771V21.9082ZM9.43323 10.6659H9.4118C8.3085 10.6659 7.59494 9.90639 7.59494 8.95718C7.59494 7.98653 8.33034 7.24805 9.45506 7.24805C10.5798 7.24805 11.2719 7.98653 11.2934 8.95718C11.2934 9.90639 10.5798 10.6659 9.43323 10.6659ZM22.9324 21.9082H19.645V16.6164C19.645 15.2865 19.1689 14.3795 17.9793 14.3795C17.0711 14.3795 16.5301 14.9913 16.2924 15.5819C16.2055 15.7933 16.1843 16.0887 16.1843 16.3843V21.9082H12.8966C12.8966 21.9082 12.9397 12.9446 12.8966 12.0166H16.1843V13.4171C16.6212 12.7431 17.4029 11.7844 19.1473 11.7844C21.3104 11.7844 22.9324 13.1982 22.9324 16.2364V21.9082Z" fill="white"/>
</svg>
