<svg width="30" height="30" viewBox="0 0 30 30" fill="none" xmlns="http://www.w3.org/2000/svg">
<path d="M15 1.5C7.5453 1.5 1.5 7.5453 1.5 15C1.5 22.4547 7.5453 28.5 15 28.5C22.4547 28.5 28.5 22.4547 28.5 15C28.5 7.5453 22.4547 1.5 15 1.5ZM21.1639 12.0259C21.1699 12.1587 21.1728 12.2922 21.1728 12.4263C21.1728 16.5209 18.0561 21.2424 12.3565 21.2426H12.3567H12.3565C10.6066 21.2426 8.97819 20.7297 7.60689 19.8507C7.84934 19.8794 8.09612 19.8936 8.34599 19.8936C9.79784 19.8936 11.1339 19.3984 12.1946 18.5672C10.8381 18.5421 9.69443 17.6462 9.29974 16.415C9.48864 16.4512 9.68289 16.471 9.88209 16.471C10.1649 16.471 10.4389 16.4329 10.6993 16.3618C9.28141 16.078 8.21333 14.8249 8.21333 13.3244C8.21333 13.3104 8.21333 13.2979 8.21375 13.2849C8.63129 13.5171 9.10879 13.6567 9.61718 13.6724C8.78517 13.1172 8.23826 12.1682 8.23826 11.0931C8.23826 10.5254 8.39172 9.99353 8.65787 9.53561C10.1859 11.4106 12.4696 12.6436 15.0449 12.7732C14.9918 12.5462 14.9644 12.3097 14.9644 12.0667C14.9644 10.3561 16.3521 8.9683 18.0633 8.9683C18.9547 8.9683 19.7597 9.34506 20.3251 9.94739C21.0311 9.80814 21.694 9.55023 22.2928 9.1953C22.0611 9.91855 21.57 10.5254 20.9301 10.9092C21.557 10.8342 22.1544 10.668 22.7095 10.4212C22.2949 11.0427 21.769 11.5885 21.1639 12.0259Z" fill="white"/>
</svg>
