<svg width="30" height="30" viewBox="0 0 30 30" fill="none" xmlns="http://www.w3.org/2000/svg">
<path fill-rule="evenodd" clip-rule="evenodd" d="M1.5 15C1.5 7.5453 7.5453 1.5 15 1.5C22.4547 1.5 28.5 7.5453 28.5 15C28.5 22.4547 22.4547 28.5 15 28.5C7.5453 28.5 1.5 22.4547 1.5 15ZM23.0881 19.0719C23.4354 17.7517 23.4354 15.0138 23.4354 15.0138C23.4354 15.0138 23.4494 12.2623 23.0881 10.9421C22.8935 10.2195 22.3237 9.64952 21.6011 9.45506C20.2809 9.09375 15 9.09375 15 9.09375C15 9.09375 9.71915 9.09375 8.39893 9.44126C7.69011 9.63572 7.10632 10.2195 6.91187 10.9421C6.56435 12.2623 6.56435 15 6.56435 15C6.56435 15 6.56435 17.7517 6.91187 19.0579C7.10653 19.7805 7.67631 20.3505 8.39893 20.5449C9.73295 20.9062 15 20.9062 15 20.9062C15 20.9062 20.2809 20.9062 21.6011 20.5587C22.3237 20.3643 22.8935 19.7945 23.0881 19.0719ZM17.7097 15L13.3184 17.5291V12.4708L17.7097 15Z" fill="white"/>
</svg>
